<?xml version="1.0" encoding="UTF-8" standalone="no"?>
<!-- Created with Inkscape (http://www.inkscape.org/) -->

<svg
   xmlns:dc="http://purl.org/dc/elements/1.1/"
   xmlns:cc="http://creativecommons.org/ns#"
   xmlns:rdf="http://www.w3.org/1999/02/22-rdf-syntax-ns#"
   xmlns:svg="http://www.w3.org/2000/svg"
   xmlns="http://www.w3.org/2000/svg"
   xmlns:sodipodi="http://sodipodi.sourceforge.net/DTD/sodipodi-0.dtd"
   xmlns:inkscape="http://www.inkscape.org/namespaces/inkscape"
   width="15.136444mm"
   height="15.123044mm"
   viewBox="0 0 53.633069 53.58559"
   id="svg2"
   version="1.1"
   inkscape:version="0.91 r13725"
   sodipodi:docname="x.svg">
  <defs
     id="defs4" />
  <sodipodi:namedview
     id="base"
     pagecolor="#ffffff"
     bordercolor="#666666"
     borderopacity="1.0"
     inkscape:pageopacity="0.0"
     inkscape:pageshadow="2"
     inkscape:zoom="11.2"
     inkscape:cx="21.380133"
     inkscape:cy="37.691235"
     inkscape:document-units="px"
     inkscape:current-layer="text3336"
     showgrid="false"
     showguides="false"
     fit-margin-top="5.26"
     fit-margin-bottom="5.26"
     fit-margin-left="5"
     fit-margin-right="5"
     inkscape:window-width="1920"
     inkscape:window-height="1017"
     inkscape:window-x="0"
     inkscape:window-y="30"
     inkscape:window-maximized="1" />
  <metadata
     id="metadata7">
    <rdf:RDF>
      <cc:Work
         rdf:about="">
        <dc:format>image/svg+xml</dc:format>
        <dc:type
           rdf:resource="http://purl.org/dc/dcmitype/StillImage" />
        <dc:title></dc:title>
      </cc:Work>
    </rdf:RDF>
  </metadata>
  <g
     inkscape:label="Layer 1"
     inkscape:groupmode="layer"
     id="layer1"
     transform="translate(-172.50714,-431.52593)">
    <g
       id="text3336">
      <path
         d="m 200.72368,457.54872 3.99,-4.655 c 0.84,-0.98 1.715,-1.47 2.625,-1.47 l 0.315,0 0,-1.26 -7.245,0 0,1.26 0.665,0 c 1.05,0 1.575,0.28 1.575,0.77 0,0.35 -0.245,0.875 -0.7,1.435 l -2.205,2.625 -2.695,-3.43 c -0.21,-0.245 -0.35,-0.56 -0.35,-0.77 0,-0.455 0.455,-0.63 1.54,-0.63 l 0.49,0 0,-1.26 -8.295,0 0,1.26 c 1.295,0.105 1.75,0.42 2.905,1.89 l 4.27,5.39 -4.025,4.69 c -0.98,1.155 -2.135,1.82 -3.15,1.82 l -0.21,0 0,1.26 7.385,0 0,-1.26 -0.525,0 c -0.805,0 -0.98,-0.035 -1.225,-0.14 -0.28,-0.14 -0.49,-0.49 -0.49,-0.805 0,-0.245 0.105,-0.56 0.28,-0.735 l 2.94,-3.535 2.66,3.535 c 0.245,0.35 0.455,0.805 0.455,1.05 0,0.455 -0.525,0.63 -1.855,0.63 l -0.245,0 0,1.26 8.82,0 0,-1.26 -0.245,0 c -1.225,0 -2.135,-0.49 -3.045,-1.715 l -4.41,-5.95 z"
         id="path3412" />
    </g>
  </g>
</svg>
